# Blender 4.1.1
# www.blender.org
mtllib Shelf.mtl
o StorageShelf
v 960.000000 8.220947 -460.000000
v 1000.000000 8.220947 -460.000000
v 1000.000000 2408.220703 -460.000000
v 960.000000 2408.220703 -460.000000
v 960.000000 8.220947 -500.000000
v 960.000000 8.220947 -460.000000
v 960.000000 2408.220703 -460.000000
v 960.000000 2408.220703 -500.000000
v 1000.000000 8.220947 -500.000000
v 960.000000 8.220947 -500.000000
v 960.000000 2408.220703 -500.000000
v 1000.000000 2408.220703 -500.000000
v 1000.000000 8.220947 -460.000000
v 1000.000000 8.220947 -500.000000
v 1000.000000 2408.220703 -500.000000
v 1000.000000 2408.220703 -460.000000
v 960.000000 8.220947 -460.000000
v 960.000000 8.220947 -500.000000
v 1000.000000 8.220947 -500.000000
v 1000.000000 8.220947 -460.000000
v 960.000000 2408.220703 -460.000000
v 1000.000000 2408.220703 -460.000000
v 1000.000000 2408.220703 -500.000000
v 960.000000 2408.220703 -500.000000
v 960.000000 8.220947 500.000000
v 1000.000000 8.220947 500.000000
v 1000.000000 2408.220703 500.000000
v 960.000000 2408.220703 500.000000
v 960.000000 8.220947 460.000000
v 960.000000 8.220947 500.000000
v 960.000000 2408.220703 500.000000
v 960.000000 2408.220703 460.000000
v 1000.000000 8.220947 460.000000
v 960.000000 8.220947 460.000000
v 960.000000 2408.220703 460.000000
v 1000.000000 2408.220703 460.000000
v 1000.000000 8.220947 500.000000
v 1000.000000 8.220947 460.000000
v 1000.000000 2408.220703 460.000000
v 1000.000000 2408.220703 500.000000
v 960.000000 8.220947 500.000000
v 960.000000 8.220947 460.000000
v 1000.000000 8.220947 460.000000
v 1000.000000 8.220947 500.000000
v 960.000000 2408.220703 500.000000
v 1000.000000 2408.220703 500.000000
v 1000.000000 2408.220703 460.000000
v 960.000000 2408.220703 460.000000
v -20.000000 8.220947 -460.000000
v 20.000000 8.220947 -460.000000
v 20.000000 2408.220703 -460.000000
v -20.000000 2408.220703 -460.000000
v -20.000000 8.220947 -500.000000
v -20.000000 8.220947 -460.000000
v -20.000000 2408.220703 -460.000000
v -20.000000 2408.220703 -500.000000
v 20.000000 8.220947 -500.000000
v -20.000000 8.220947 -500.000000
v -20.000000 2408.220703 -500.000000
v 20.000000 2408.220703 -500.000000
v 20.000000 8.220947 -460.000000
v 20.000000 8.220947 -500.000000
v 20.000000 2408.220703 -500.000000
v 20.000000 2408.220703 -460.000000
v -20.000000 8.220947 -460.000000
v -20.000000 8.220947 -500.000000
v 20.000000 8.220947 -500.000000
v 20.000000 8.220947 -460.000000
v -20.000000 2408.220703 -460.000000
v 20.000000 2408.220703 -460.000000
v 20.000000 2408.220703 -500.000000
v -20.000000 2408.220703 -500.000000
v -20.000000 8.220947 500.000000
v 20.000000 8.220947 500.000000
v 20.000000 2408.220703 500.000000
v -20.000000 2408.220703 500.000000
v -20.000000 8.220947 460.000000
v -20.000000 8.220947 500.000000
v -20.000000 2408.220703 500.000000
v -20.000000 2408.220703 460.000000
v 20.000000 8.220947 460.000000
v -20.000000 8.220947 460.000000
v -20.000000 2408.220703 460.000000
v 20.000000 2408.220703 460.000000
v 20.000000 8.220947 500.000000
v 20.000000 8.220947 460.000000
v 20.000000 2408.220703 460.000000
v 20.000000 2408.220703 500.000000
v -20.000000 8.220947 500.000000
v -20.000000 8.220947 460.000000
v 20.000000 8.220947 460.000000
v 20.000000 8.220947 500.000000
v -20.000000 2408.220703 500.000000
v 20.000000 2408.220703 500.000000
v 20.000000 2408.220703 460.000000
v -20.000000 2408.220703 460.000000
v -1000.000122 8.220947 -460.000000
v -960.000122 8.220947 -460.000000
v -960.000122 2408.220703 -460.000000
v -1000.000122 2408.220703 -460.000000
v -1000.000122 8.220947 -500.000000
v -1000.000122 8.220947 -460.000000
v -1000.000122 2408.220703 -460.000000
v -1000.000122 2408.220703 -500.000000
v -960.000122 8.220947 -500.000000
v -1000.000122 8.220947 -500.000000
v -1000.000122 2408.220703 -500.000000
v -960.000122 2408.220703 -500.000000
v -960.000122 8.220947 -460.000000
v -960.000122 8.220947 -500.000000
v -960.000122 2408.220703 -500.000000
v -960.000122 2408.220703 -460.000000
v -1000.000122 8.220947 -460.000000
v -1000.000122 8.220947 -500.000000
v -960.000122 8.220947 -500.000000
v -960.000122 8.220947 -460.000000
v -1000.000122 2408.220703 -460.000000
v -960.000122 2408.220703 -460.000000
v -960.000122 2408.220703 -500.000000
v -1000.000122 2408.220703 -500.000000
v -1000.000122 8.220947 500.000000
v -960.000122 8.220947 500.000000
v -960.000122 2408.220703 500.000000
v -1000.000122 2408.220703 500.000000
v -1000.000122 8.220947 460.000000
v -1000.000122 8.220947 500.000000
v -1000.000122 2408.220703 500.000000
v -1000.000122 2408.220703 460.000000
v -960.000122 8.220947 460.000000
v -1000.000122 8.220947 460.000000
v -1000.000122 2408.220703 460.000000
v -960.000122 2408.220703 460.000000
v -960.000122 8.220947 500.000000
v -960.000122 8.220947 460.000000
v -960.000122 2408.220703 460.000000
v -960.000122 2408.220703 500.000000
v -1000.000122 8.220947 500.000000
v -1000.000122 8.220947 460.000000
v -960.000122 8.220947 460.000000
v -960.000122 8.220947 500.000000
v -1000.000122 2408.220703 500.000000
v -960.000122 2408.220703 500.000000
v -960.000122 2408.220703 460.000000
v -1000.000122 2408.220703 460.000000
v -1000.000122 2408.220703 500.000000
v 1000.000000 2408.220703 500.000000
v 1000.000000 2433.220703 500.000000
v -1000.000122 2433.220703 500.000000
v -1000.000122 2408.220703 -500.000000
v -1000.000122 2408.220703 500.000000
v -1000.000122 2433.220703 500.000000
v -1000.000122 2433.220703 -500.000000
v 1000.000000 2408.220703 -500.000000
v -1000.000122 2408.220703 -500.000000
v -1000.000122 2433.220703 -500.000000
v 1000.000000 2433.220703 -500.000000
v 1000.000000 2408.220703 500.000000
v 1000.000000 2408.220703 -500.000000
v 1000.000000 2433.220703 -500.000000
v 1000.000000 2433.220703 500.000000
v -1000.000122 2408.220703 500.000000
v -1000.000122 2408.220703 -500.000000
v 1000.000000 2408.220703 -500.000000
v 1000.000000 2408.220703 500.000000
v -1000.000122 2433.220703 500.000000
v 1000.000000 2433.220703 500.000000
v 1000.000000 2433.220703 -500.000000
v -1000.000122 2433.220703 -500.000000
v -1000.000122 1808.220947 500.000000
v 1000.000000 1808.220947 500.000000
v 1000.000000 1833.220947 500.000000
v -1000.000122 1833.220947 500.000000
v -1000.000122 1808.220947 -500.000000
v -1000.000122 1808.220947 500.000000
v -1000.000122 1833.220947 500.000000
v -1000.000122 1833.220947 -500.000000
v 1000.000000 1808.220947 -500.000000
v -1000.000122 1808.220947 -500.000000
v -1000.000122 1833.220947 -500.000000
v 1000.000000 1833.220947 -500.000000
v 1000.000000 1808.220947 500.000000
v 1000.000000 1808.220947 -500.000000
v 1000.000000 1833.220947 -500.000000
v 1000.000000 1833.220947 500.000000
v -1000.000122 1808.220947 500.000000
v -1000.000122 1808.220947 -500.000000
v 1000.000000 1808.220947 -500.000000
v 1000.000000 1808.220947 500.000000
v -1000.000122 1833.220947 500.000000
v 1000.000000 1833.220947 500.000000
v 1000.000000 1833.220947 -500.000000
v -1000.000122 1833.220947 -500.000000
v -1000.000122 1208.220947 500.000000
v 1000.000000 1208.220947 500.000000
v 1000.000000 1233.220947 500.000000
v -1000.000122 1233.220947 500.000000
v -1000.000122 1208.220947 -500.000000
v -1000.000122 1208.220947 500.000000
v -1000.000122 1233.220947 500.000000
v -1000.000122 1233.220947 -500.000000
v 1000.000000 1208.220947 -500.000000
v -1000.000122 1208.220947 -500.000000
v -1000.000122 1233.220947 -500.000000
v 1000.000000 1233.220947 -500.000000
v 1000.000000 1208.220947 500.000000
v 1000.000000 1208.220947 -500.000000
v 1000.000000 1233.220947 -500.000000
v 1000.000000 1233.220947 500.000000
v -1000.000122 1208.220947 500.000000
v -1000.000122 1208.220947 -500.000000
v 1000.000000 1208.220947 -500.000000
v 1000.000000 1208.220947 500.000000
v -1000.000122 1233.220947 500.000000
v 1000.000000 1233.220947 500.000000
v 1000.000000 1233.220947 -500.000000
v -1000.000122 1233.220947 -500.000000
v -1000.000122 608.220947 500.000000
v 1000.000000 608.220947 500.000000
v 1000.000000 633.220947 500.000000
v -1000.000122 633.220947 500.000000
v -1000.000122 608.220947 -500.000000
v -1000.000122 608.220947 500.000000
v -1000.000122 633.220947 500.000000
v -1000.000122 633.220947 -500.000000
v 1000.000000 608.220947 -500.000000
v -1000.000122 608.220947 -500.000000
v -1000.000122 633.220947 -500.000000
v 1000.000000 633.220947 -500.000000
v 1000.000000 608.220947 500.000000
v 1000.000000 608.220947 -500.000000
v 1000.000000 633.220947 -500.000000
v 1000.000000 633.220947 500.000000
v -1000.000122 608.220947 500.000000
v -1000.000122 608.220947 -500.000000
v 1000.000000 608.220947 -500.000000
v 1000.000000 608.220947 500.000000
v -1000.000122 633.220947 500.000000
v 1000.000000 633.220947 500.000000
v 1000.000000 633.220947 -500.000000
v -1000.000122 633.220947 -500.000000
v -1000.000122 8.220947 500.000000
v 1000.000000 8.220947 500.000000
v 1000.000000 33.220947 500.000000
v -1000.000122 33.220947 500.000000
v -1000.000122 8.220947 -500.000000
v -1000.000122 8.220947 500.000000
v -1000.000122 33.220947 500.000000
v -1000.000122 33.220947 -500.000000
v 1000.000000 8.220947 -500.000000
v -1000.000122 8.220947 -500.000000
v -1000.000122 33.220947 -500.000000
v 1000.000000 33.220947 -500.000000
v 1000.000000 8.220947 500.000000
v 1000.000000 8.220947 -500.000000
v 1000.000000 33.220947 -500.000000
v 1000.000000 33.220947 500.000000
v -1000.000122 8.220947 500.000000
v -1000.000122 8.220947 -500.000000
v 1000.000000 8.220947 -500.000000
v 1000.000000 8.220947 500.000000
v -1000.000122 33.220947 500.000000
v 1000.000000 33.220947 500.000000
v 1000.000000 33.220947 -500.000000
v -1000.000122 33.220947 -500.000000
vn -0.0000 -0.0000 1.0000
vn -1.0000 -0.0000 -0.0000
vn -0.0000 -0.0000 -1.0000
vn 1.0000 -0.0000 -0.0000
vn -0.0000 -1.0000 -0.0000
vn -0.0000 1.0000 -0.0000
vt 0.000000 0.000000
s 0
usemtl metal
f 1/1/1 2/1/1 3/1/1
f 1/1/1 3/1/1 4/1/1
f 5/1/2 6/1/2 7/1/2
f 5/1/2 7/1/2 8/1/2
f 9/1/3 10/1/3 11/1/3
f 9/1/3 11/1/3 12/1/3
f 13/1/4 14/1/4 15/1/4
f 13/1/4 15/1/4 16/1/4
f 17/1/5 18/1/5 19/1/5
f 17/1/5 19/1/5 20/1/5
f 21/1/6 22/1/6 23/1/6
f 21/1/6 23/1/6 24/1/6
f 25/1/1 26/1/1 27/1/1
f 25/1/1 27/1/1 28/1/1
f 29/1/2 30/1/2 31/1/2
f 29/1/2 31/1/2 32/1/2
f 33/1/3 34/1/3 35/1/3
f 33/1/3 35/1/3 36/1/3
f 37/1/4 38/1/4 39/1/4
f 37/1/4 39/1/4 40/1/4
f 41/1/5 42/1/5 43/1/5
f 41/1/5 43/1/5 44/1/5
f 45/1/6 46/1/6 47/1/6
f 45/1/6 47/1/6 48/1/6
f 49/1/1 50/1/1 51/1/1
f 49/1/1 51/1/1 52/1/1
f 53/1/2 54/1/2 55/1/2
f 53/1/2 55/1/2 56/1/2
f 57/1/3 58/1/3 59/1/3
f 57/1/3 59/1/3 60/1/3
f 61/1/4 62/1/4 63/1/4
f 61/1/4 63/1/4 64/1/4
f 65/1/5 66/1/5 67/1/5
f 65/1/5 67/1/5 68/1/5
f 69/1/6 70/1/6 71/1/6
f 69/1/6 71/1/6 72/1/6
f 73/1/1 74/1/1 75/1/1
f 73/1/1 75/1/1 76/1/1
f 77/1/2 78/1/2 79/1/2
f 77/1/2 79/1/2 80/1/2
f 81/1/3 82/1/3 83/1/3
f 81/1/3 83/1/3 84/1/3
f 85/1/4 86/1/4 87/1/4
f 85/1/4 87/1/4 88/1/4
f 89/1/5 90/1/5 91/1/5
f 89/1/5 91/1/5 92/1/5
f 93/1/6 94/1/6 95/1/6
f 93/1/6 95/1/6 96/1/6
f 97/1/1 98/1/1 99/1/1
f 97/1/1 99/1/1 100/1/1
f 101/1/2 102/1/2 103/1/2
f 101/1/2 103/1/2 104/1/2
f 105/1/3 106/1/3 107/1/3
f 105/1/3 107/1/3 108/1/3
f 109/1/4 110/1/4 111/1/4
f 109/1/4 111/1/4 112/1/4
f 113/1/5 114/1/5 115/1/5
f 113/1/5 115/1/5 116/1/5
f 117/1/6 118/1/6 119/1/6
f 117/1/6 119/1/6 120/1/6
f 121/1/1 122/1/1 123/1/1
f 121/1/1 123/1/1 124/1/1
f 125/1/2 126/1/2 127/1/2
f 125/1/2 127/1/2 128/1/2
f 129/1/3 130/1/3 131/1/3
f 129/1/3 131/1/3 132/1/3
f 133/1/4 134/1/4 135/1/4
f 133/1/4 135/1/4 136/1/4
f 137/1/5 138/1/5 139/1/5
f 137/1/5 139/1/5 140/1/5
f 141/1/6 142/1/6 143/1/6
f 141/1/6 143/1/6 144/1/6
f 145/1/1 146/1/1 147/1/1
f 145/1/1 147/1/1 148/1/1
f 149/1/2 150/1/2 151/1/2
f 149/1/2 151/1/2 152/1/2
f 153/1/3 154/1/3 155/1/3
f 153/1/3 155/1/3 156/1/3
f 157/1/4 158/1/4 159/1/4
f 157/1/4 159/1/4 160/1/4
f 161/1/5 162/1/5 163/1/5
f 161/1/5 163/1/5 164/1/5
f 165/1/6 166/1/6 167/1/6
f 165/1/6 167/1/6 168/1/6
f 169/1/1 170/1/1 171/1/1
f 169/1/1 171/1/1 172/1/1
f 173/1/2 174/1/2 175/1/2
f 173/1/2 175/1/2 176/1/2
f 177/1/3 178/1/3 179/1/3
f 177/1/3 179/1/3 180/1/3
f 181/1/4 182/1/4 183/1/4
f 181/1/4 183/1/4 184/1/4
f 185/1/5 186/1/5 187/1/5
f 185/1/5 187/1/5 188/1/5
f 189/1/6 190/1/6 191/1/6
f 189/1/6 191/1/6 192/1/6
f 193/1/1 194/1/1 195/1/1
f 193/1/1 195/1/1 196/1/1
f 197/1/2 198/1/2 199/1/2
f 197/1/2 199/1/2 200/1/2
f 201/1/3 202/1/3 203/1/3
f 201/1/3 203/1/3 204/1/3
f 205/1/4 206/1/4 207/1/4
f 205/1/4 207/1/4 208/1/4
f 209/1/5 210/1/5 211/1/5
f 209/1/5 211/1/5 212/1/5
f 213/1/6 214/1/6 215/1/6
f 213/1/6 215/1/6 216/1/6
f 217/1/1 218/1/1 219/1/1
f 217/1/1 219/1/1 220/1/1
f 221/1/2 222/1/2 223/1/2
f 221/1/2 223/1/2 224/1/2
f 225/1/3 226/1/3 227/1/3
f 225/1/3 227/1/3 228/1/3
f 229/1/4 230/1/4 231/1/4
f 229/1/4 231/1/4 232/1/4
f 233/1/5 234/1/5 235/1/5
f 233/1/5 235/1/5 236/1/5
f 237/1/6 238/1/6 239/1/6
f 237/1/6 239/1/6 240/1/6
f 241/1/1 242/1/1 243/1/1
f 241/1/1 243/1/1 244/1/1
f 245/1/2 246/1/2 247/1/2
f 245/1/2 247/1/2 248/1/2
f 249/1/3 250/1/3 251/1/3
f 249/1/3 251/1/3 252/1/3
f 253/1/4 254/1/4 255/1/4
f 253/1/4 255/1/4 256/1/4
f 257/1/5 258/1/5 259/1/5
f 257/1/5 259/1/5 260/1/5
f 261/1/6 262/1/6 263/1/6
f 261/1/6 263/1/6 264/1/6
