# Blender 4.1.1
# www.blender.org
mtllib Table1.mtl
o Table1
v 500.000000 670.823975 -500.000000
v 500.000000 740.823975 -500.000000
v 500.000000 740.823975 500.000000
v 500.000000 670.823975 500.000000
v -499.999939 670.823975 -500.000000
v -499.999939 740.823975 -500.000000
v 500.000000 740.823975 -500.000000
v 500.000000 670.823975 -500.000000
v -499.999939 740.823975 500.000000
v -499.999939 740.823975 -500.000000
v -499.999939 670.823975 -500.000000
v -499.999939 670.823975 500.000000
v -499.999939 740.823975 500.000000
v -499.999939 670.823975 500.000000
v 500.000000 670.823975 500.000000
v 500.000000 740.823975 500.000000
v -499.999939 740.823975 500.000000
v 500.000000 740.823975 500.000000
v 500.000000 740.823975 -500.000000
v -499.999939 740.823975 -500.000000
v -500.000061 670.823975 500.000000
v -500.000061 670.823975 444.635742
v -491.417969 -9.176086 453.217773
v -491.417969 -9.176086 491.417969
v -444.635925 670.823975 444.635742
v -491.417969 -9.176086 453.217773
v -500.000061 670.823975 444.635742
v -453.217957 -9.176086 453.217773
v -453.217957 -9.176086 453.217773
v -491.417969 -9.176086 491.417969
v -491.417969 -9.176086 453.217773
v -453.217957 -9.176086 491.417969
v -444.635925 670.823975 500.000000
v -453.217957 -9.176086 453.217773
v -444.635925 670.823975 444.635742
v -453.217957 -9.176086 491.417969
v -500.000061 670.823975 500.000000
v -453.217957 -9.176086 491.417969
v -444.635925 670.823975 500.000000
v -491.417969 -9.176086 491.417969
v -500.000061 670.823975 -444.635742
v -500.000061 670.823975 -500.000000
v -491.417969 -9.176086 -491.417969
v -491.417969 -9.176086 -453.217773
v -444.635925 670.823975 -500.000000
v -491.417969 -9.176086 -491.417969
v -500.000061 670.823975 -500.000000
v -453.217957 -9.176086 -491.417969
v -453.217957 -9.176086 -491.417969
v -491.417969 -9.176086 -453.217773
v -491.417969 -9.176086 -491.417969
v -453.217957 -9.176086 -453.217773
v -444.635925 670.823975 -444.635742
v -453.217957 -9.176086 -491.417969
v -444.635925 670.823975 -500.000000
v -453.217957 -9.176086 -453.217773
v -500.000061 670.823975 -444.635742
v -453.217957 -9.176086 -453.217773
v -444.635925 670.823975 -444.635742
v -491.417969 -9.176086 -453.217773
v 444.635986 670.823975 500.000000
v 444.635986 670.823975 444.635742
v 453.218018 -9.176086 453.217773
v 453.218018 -9.176086 491.417969
v 500.000122 670.823975 444.635742
v 453.218018 -9.176086 453.217773
v 444.635986 670.823975 444.635742
v 491.418091 -9.176086 453.217773
v 491.418091 -9.176086 453.217773
v 453.218018 -9.176086 491.417969
v 453.218018 -9.176086 453.217773
v 491.418091 -9.176086 491.417969
v 500.000122 670.823975 500.000000
v 491.418091 -9.176086 453.217773
v 500.000122 670.823975 444.635742
v 491.418091 -9.176086 491.417969
v 444.635986 670.823975 500.000000
v 491.418091 -9.176086 491.417969
v 500.000122 670.823975 500.000000
v 453.218018 -9.176086 491.417969
v 444.635986 670.823975 -444.635742
v 444.635986 670.823975 -500.000000
v 453.218018 -9.176086 -491.417969
v 453.218018 -9.176086 -453.217773
v 500.000122 670.823975 -500.000000
v 453.218018 -9.176086 -491.417969
v 444.635986 670.823975 -500.000000
v 491.418091 -9.176086 -491.417969
v 491.418091 -9.176086 -491.417969
v 453.218018 -9.176086 -453.217773
v 453.218018 -9.176086 -491.417969
v 491.418091 -9.176086 -453.217773
v 500.000122 670.823975 -444.635742
v 491.418091 -9.176086 -491.417969
v 500.000122 670.823975 -500.000000
v 491.418091 -9.176086 -453.217773
v 444.635986 670.823975 -444.635742
v 491.418091 -9.176086 -453.217773
v 500.000122 670.823975 -444.635742
v 453.218018 -9.176086 -453.217773
v 500.000000 670.823975 500.000000
v -499.999939 670.823975 500.000000
v -499.999939 670.823975 -500.000000
v 500.000000 670.823975 -500.000000
vn 1.0000 -0.0000 -0.0000
vn -0.0000 -0.0000 -1.0000
vn -1.0000 -0.0000 -0.0000
vn -0.0000 -0.0000 1.0000
vn -0.0000 1.0000 -0.0000
vn -0.9999 -0.0126 -0.0000
vn -0.0000 -0.0126 -0.9999
vn -0.0000 -1.0000 -0.0000
vn 0.9999 -0.0126 -0.0000
vn -0.0000 -0.0126 0.9999
vt 0.000000 0.000000
s 0
usemtl wood
f 1/1/1 2/1/1 3/1/1
f 1/1/1 3/1/1 4/1/1
f 5/1/2 6/1/2 7/1/2
f 5/1/2 7/1/2 8/1/2
f 9/1/3 10/1/3 11/1/3
f 9/1/3 11/1/3 12/1/3
f 13/1/4 14/1/4 15/1/4
f 13/1/4 15/1/4 16/1/4
f 17/1/5 18/1/5 19/1/5
f 17/1/5 19/1/5 20/1/5
usemtl Metal90%Grey
f 21/1/6 22/1/6 23/1/6
f 21/1/6 23/1/6 24/1/6
f 25/1/7 26/1/7 27/1/7
f 25/1/7 28/1/7 26/1/7
f 29/1/8 30/1/8 31/1/8
f 29/1/8 32/1/8 30/1/8
f 33/1/9 34/1/9 35/1/9
f 33/1/9 36/1/9 34/1/9
f 37/1/10 38/1/10 39/1/10
f 37/1/10 40/1/10 38/1/10
f 41/1/6 42/1/6 43/1/6
f 41/1/6 43/1/6 44/1/6
f 45/1/7 46/1/7 47/1/7
f 45/1/7 48/1/7 46/1/7
f 49/1/8 50/1/8 51/1/8
f 49/1/8 52/1/8 50/1/8
f 53/1/9 54/1/9 55/1/9
f 53/1/9 56/1/9 54/1/9
f 57/1/10 58/1/10 59/1/10
f 57/1/10 60/1/10 58/1/10
f 61/1/6 62/1/6 63/1/6
f 61/1/6 63/1/6 64/1/6
f 65/1/7 66/1/7 67/1/7
f 65/1/7 68/1/7 66/1/7
f 69/1/8 70/1/8 71/1/8
f 69/1/8 72/1/8 70/1/8
f 73/1/9 74/1/9 75/1/9
f 73/1/9 76/1/9 74/1/9
f 77/1/10 78/1/10 79/1/10
f 77/1/10 80/1/10 78/1/10
f 81/1/6 82/1/6 83/1/6
f 81/1/6 83/1/6 84/1/6
f 85/1/7 86/1/7 87/1/7
f 85/1/7 88/1/7 86/1/7
f 89/1/8 90/1/8 91/1/8
f 89/1/8 92/1/8 90/1/8
f 93/1/9 94/1/9 95/1/9
f 93/1/9 96/1/9 94/1/9
f 97/1/10 98/1/10 99/1/10
f 97/1/10 100/1/10 98/1/10
usemtl Chocolate
f 101/1/8 102/1/8 103/1/8
f 101/1/8 103/1/8 104/1/8
