# Visual Components OBJ Exporter v0.1c - (c)2015 Visual Components
# File Created: 2024-08-14T08:26:10.1664827Z
mtllib Table1.mtl


#
# object TableTopGeometry
#
# 4 vertices
v 1684.69865752491 -7710.28922328893 680
v 1684.69865752491 -7710.28922328893 750
v 1684.69865752491 -8710.28922328893 750
v 1684.69865752491 -8710.28922328893 680
# 4 normals
vn 1 0 0
vn 1 0 0
vn 1 0 0
vn 1 0 0
# 4 texture coords
vt 0.0000 0.0000 0.0000
vt 0.0000 0.0000 0.0000
vt 0.0000 0.0000 0.0000
vt 0.0000 0.0000 0.0000
g TableTopGeometry
usemtl wood
# 2 triangles
f 1/1/1 2/2/2 3/3/3
f 1/1/1 3/3/3 4/4/4

#
# object TableTopGeometry
#
# 4 vertices
v 684.698657524912 -7710.28922328893 680
v 684.698657524912 -7710.28922328893 750
v 1684.69865752491 -7710.28922328893 750
v 1684.69865752491 -7710.28922328893 680
# 4 normals
vn 0 1 0
vn 0 1 0
vn 0 1 0
vn 0 1 0
# 4 texture coords
vt 0.0000 0.0000 0.0000
vt 0.0000 0.0000 0.0000
vt 0.0000 0.0000 0.0000
vt 0.0000 0.0000 0.0000
g TableTopGeometry
usemtl wood
# 2 triangles
f 5/5/5 6/6/6 7/7/7
f 5/5/5 7/7/7 8/8/8

#
# object TableTopGeometry
#
# 4 vertices
v 684.698657524912 -8710.28922328893 750
v 684.698657524912 -7710.28922328893 750
v 684.698657524912 -7710.28922328893 680
v 684.698657524912 -8710.28922328893 680
# 4 normals
vn -1 0 0
vn -1 0 0
vn -1 0 0
vn -1 0 0
# 4 texture coords
vt 0.0000 0.0000 0.0000
vt 0.0000 0.0000 0.0000
vt 0.0000 0.0000 0.0000
vt 0.0000 0.0000 0.0000
g TableTopGeometry
usemtl wood
# 2 triangles
f 9/9/9 10/10/10 11/11/11
f 9/9/9 11/11/11 12/12/12

#
# object TableTopGeometry
#
# 4 vertices
v 684.698657524912 -8710.28922328893 750
v 684.698657524912 -8710.28922328893 680
v 1684.69865752491 -8710.28922328893 680
v 1684.69865752491 -8710.28922328893 750
# 4 normals
vn 0 -1 0
vn 0 -1 0
vn 0 -1 0
vn 0 -1 0
# 4 texture coords
vt 0.0000 0.0000 0.0000
vt 0.0000 0.0000 0.0000
vt 0.0000 0.0000 0.0000
vt 0.0000 0.0000 0.0000
g TableTopGeometry
usemtl wood
# 2 triangles
f 13/13/13 14/14/14 15/15/15
f 13/13/13 15/15/15 16/16/16

#
# object TableTopGeometry
#
# 4 vertices
v 684.698657524912 -8710.28922328893 750
v 1684.69865752491 -8710.28922328893 750
v 1684.69865752491 -7710.28922328893 750
v 684.698657524912 -7710.28922328893 750
# 4 normals
vn 0 0 1
vn 0 0 1
vn 0 0 1
vn 0 0 1
# 4 texture coords
vt 0.0000 0.0000 0.0000
vt 0.0000 0.0000 0.0000
vt 0.0000 0.0000 0.0000
vt 0.0000 0.0000 0.0000
g TableTopGeometry
usemtl wood
# 2 triangles
f 17/17/17 18/18/18 19/19/19
f 17/17/17 19/19/19 20/20/20

#
# object TableLegGeometry
#
# 20 vertices
v 684.698565972178 -8710.28928432408 680
v 684.698565972178 -8654.9251485819 680
v 693.280658257334 -8663.50724086705 0
v 693.280658257334 -8701.70722255651 0
v 740.062701714365 -8654.9251485819 680
v 693.280658257334 -8663.50724086705 0
v 684.698565972178 -8654.9251485819 680
v 731.480670464365 -8663.50724086705 0
v 731.480670464365 -8663.50724086705 0
v 693.280658257334 -8701.70722255651 0
v 693.280658257334 -8663.50724086705 0
v 731.480670464365 -8701.70722255651 0
v 740.062701714365 -8710.28928432408 680
v 731.480670464365 -8663.50724086705 0
v 740.062701714365 -8654.9251485819 680
v 731.480670464365 -8701.70722255651 0
v 684.698565972178 -8710.28928432408 680
v 731.480670464365 -8701.70722255651 0
v 740.062701714365 -8710.28928432408 680
v 693.280658257334 -8701.70722255651 0
# 20 normals
vn -0.999920308589935 0 -0.0126197170466185
vn -0.999920308589935 0 -0.0126197170466185
vn -0.999920308589935 0 -0.012619717977941
vn -0.999920308589935 0 -0.012619717977941
vn 0 0.999920308589935 -0.012619717977941
vn 0 0.999920308589935 -0.012619717977941
vn 0 0.999920308589935 -0.0126197170466185
vn 0 0.999920308589935 -0.0126197189092636
vn 0 0 -1
vn 0 0 -1
vn 0 0 -1
vn 0 0 -1
vn 0.999920308589935 0 -0.0126196285709739
vn 0.999920308589935 0 -0.0126196285709739
vn 0.999920308589935 0 -0.0126196276396513
vn 0.999920308589935 0 -0.0126196285709739
vn 0 -0.999920308589935 -0.0126196732744575
vn 0 -0.999920308589935 -0.0126196732744575
vn 0 -0.999920308589935 -0.0126196732744575
vn 0 -0.999920308589935 -0.0126196732744575
# 20 texture coords
vt 0.0000 0.0000 0.0000
vt 0.0000 0.0000 0.0000
vt 0.0000 0.0000 0.0000
vt 0.0000 0.0000 0.0000
vt 0.0000 0.0000 0.0000
vt 0.0000 0.0000 0.0000
vt 0.0000 0.0000 0.0000
vt 0.0000 0.0000 0.0000
vt 0.0000 0.0000 0.0000
vt 0.0000 0.0000 0.0000
vt 0.0000 0.0000 0.0000
vt 0.0000 0.0000 0.0000
vt 0.0000 0.0000 0.0000
vt 0.0000 0.0000 0.0000
vt 0.0000 0.0000 0.0000
vt 0.0000 0.0000 0.0000
vt 0.0000 0.0000 0.0000
vt 0.0000 0.0000 0.0000
vt 0.0000 0.0000 0.0000
vt 0.0000 0.0000 0.0000
g TableLegGeometry
usemtl Metal90%Grey
# 10 triangles
f 21/21/21 22/22/22 23/23/23
f 21/21/21 23/23/23 24/24/24
f 25/25/25 26/26/26 27/27/27
f 25/25/25 28/28/28 26/26/26
f 29/29/29 30/30/30 31/31/31
f 29/29/29 32/32/32 30/30/30
f 33/33/33 34/34/34 35/35/35
f 33/33/33 36/36/36 34/34/34
f 37/37/37 38/38/38 39/39/39
f 37/37/37 40/40/40 38/38/38

#
# object TableLegGeometry
#
# 20 vertices
v 684.698565972178 -7765.65326747838 680
v 684.698565972178 -7710.28913173619 680
v 693.280658257334 -7718.87122402135 0
v 693.280658257334 -7757.0712057108 0
v 740.062701714365 -7710.28913173619 680
v 693.280658257334 -7718.87122402135 0
v 684.698565972178 -7710.28913173619 680
v 731.480670464365 -7718.87122402135 0
v 731.480670464365 -7718.87122402135 0
v 693.280658257334 -7757.0712057108 0
v 693.280658257334 -7718.87122402135 0
v 731.480670464365 -7757.0712057108 0
v 740.062701714365 -7765.65326747838 680
v 731.480670464365 -7718.87122402135 0
v 740.062701714365 -7710.28913173619 680
v 731.480670464365 -7757.0712057108 0
v 684.698565972178 -7765.65326747838 680
v 731.480670464365 -7757.0712057108 0
v 740.062701714365 -7765.65326747838 680
v 693.280658257334 -7757.0712057108 0
# 20 normals
vn -0.999920308589935 0 -0.0126197170466185
vn -0.999920308589935 0 -0.0126197170466185
vn -0.999920308589935 0 -0.012619717977941
vn -0.999920308589935 0 -0.012619717977941
vn 0 0.999920308589935 -0.012619717977941
vn 0 0.999920308589935 -0.012619717977941
vn 0 0.999920308589935 -0.0126197170466185
vn 0 0.999920308589935 -0.0126197189092636
vn 0 0 -1
vn 0 0 -1
vn 0 0 -1
vn 0 0 -1
vn 0.999920308589935 0 -0.0126196285709739
vn 0.999920308589935 0 -0.0126196285709739
vn 0.999920308589935 0 -0.0126196276396513
vn 0.999920308589935 0 -0.0126196285709739
vn 0 -0.999920308589935 -0.0126196732744575
vn 0 -0.999920308589935 -0.0126196732744575
vn 0 -0.999920308589935 -0.0126196732744575
vn 0 -0.999920308589935 -0.0126196732744575
# 20 texture coords
vt 0.0000 0.0000 0.0000
vt 0.0000 0.0000 0.0000
vt 0.0000 0.0000 0.0000
vt 0.0000 0.0000 0.0000
vt 0.0000 0.0000 0.0000
vt 0.0000 0.0000 0.0000
vt 0.0000 0.0000 0.0000
vt 0.0000 0.0000 0.0000
vt 0.0000 0.0000 0.0000
vt 0.0000 0.0000 0.0000
vt 0.0000 0.0000 0.0000
vt 0.0000 0.0000 0.0000
vt 0.0000 0.0000 0.0000
vt 0.0000 0.0000 0.0000
vt 0.0000 0.0000 0.0000
vt 0.0000 0.0000 0.0000
vt 0.0000 0.0000 0.0000
vt 0.0000 0.0000 0.0000
vt 0.0000 0.0000 0.0000
vt 0.0000 0.0000 0.0000
g TableLegGeometry
usemtl Metal90%Grey
# 10 triangles
f 41/41/41 42/42/42 43/43/43
f 41/41/41 43/43/43 44/44/44
f 45/45/45 46/46/46 47/47/47
f 45/45/45 48/48/48 46/46/46
f 49/49/49 50/50/50 51/51/51
f 49/49/49 52/52/52 50/50/50
f 53/53/53 54/54/54 55/55/55
f 53/53/53 56/56/56 54/54/54
f 57/57/57 58/58/58 59/59/59
f 57/57/57 60/60/60 58/58/58

#
# object TableLegGeometry
#
# 20 vertices
v 1629.3345523003 -8710.28928432408 680
v 1629.3345523003 -8654.9251485819 680
v 1637.91664458546 -8663.50724086705 0
v 1637.91664458546 -8701.70722255651 0
v 1684.69868804249 -8654.9251485819 680
v 1637.91664458546 -8663.50724086705 0
v 1629.3345523003 -8654.9251485819 680
v 1676.11665679249 -8663.50724086705 0
v 1676.11665679249 -8663.50724086705 0
v 1637.91664458546 -8701.70722255651 0
v 1637.91664458546 -8663.50724086705 0
v 1676.11665679249 -8701.70722255651 0
v 1684.69868804249 -8710.28928432408 680
v 1676.11665679249 -8663.50724086705 0
v 1684.69868804249 -8654.9251485819 680
v 1676.11665679249 -8701.70722255651 0
v 1629.3345523003 -8710.28928432408 680
v 1676.11665679249 -8701.70722255651 0
v 1684.69868804249 -8710.28928432408 680
v 1637.91664458546 -8701.70722255651 0
# 20 normals
vn -0.999920308589935 0 -0.0126197170466185
vn -0.999920308589935 0 -0.0126197170466185
vn -0.999920308589935 0 -0.012619717977941
vn -0.999920308589935 0 -0.012619717977941
vn 0 0.999920308589935 -0.012619717977941
vn 0 0.999920308589935 -0.012619717977941
vn 0 0.999920308589935 -0.0126197170466185
vn 0 0.999920308589935 -0.0126197189092636
vn 0 0 -1
vn 0 0 -1
vn 0 0 -1
vn 0 0 -1
vn 0.999920308589935 0 -0.0126196285709739
vn 0.999920308589935 0 -0.0126196285709739
vn 0.999920308589935 0 -0.0126196276396513
vn 0.999920308589935 0 -0.0126196285709739
vn 0 -0.999920308589935 -0.0126196732744575
vn 0 -0.999920308589935 -0.0126196732744575
vn 0 -0.999920308589935 -0.0126196732744575
vn 0 -0.999920308589935 -0.0126196732744575
# 20 texture coords
vt 0.0000 0.0000 0.0000
vt 0.0000 0.0000 0.0000
vt 0.0000 0.0000 0.0000
vt 0.0000 0.0000 0.0000
vt 0.0000 0.0000 0.0000
vt 0.0000 0.0000 0.0000
vt 0.0000 0.0000 0.0000
vt 0.0000 0.0000 0.0000
vt 0.0000 0.0000 0.0000
vt 0.0000 0.0000 0.0000
vt 0.0000 0.0000 0.0000
vt 0.0000 0.0000 0.0000
vt 0.0000 0.0000 0.0000
vt 0.0000 0.0000 0.0000
vt 0.0000 0.0000 0.0000
vt 0.0000 0.0000 0.0000
vt 0.0000 0.0000 0.0000
vt 0.0000 0.0000 0.0000
vt 0.0000 0.0000 0.0000
vt 0.0000 0.0000 0.0000
g TableLegGeometry
usemtl Metal90%Grey
# 10 triangles
f 61/61/61 62/62/62 63/63/63
f 61/61/61 63/63/63 64/64/64
f 65/65/65 66/66/66 67/67/67
f 65/65/65 68/68/68 66/66/66
f 69/69/69 70/70/70 71/71/71
f 69/69/69 72/72/72 70/70/70
f 73/73/73 74/74/74 75/75/75
f 73/73/73 76/76/76 74/74/74
f 77/77/77 78/78/78 79/79/79
f 77/77/77 80/80/80 78/78/78

#
# object TableLegGeometry
#
# 20 vertices
v 1629.3345523003 -7765.65326747838 680
v 1629.3345523003 -7710.28913173619 680
v 1637.91664458546 -7718.87122402135 0
v 1637.91664458546 -7757.0712057108 0
v 1684.69868804249 -7710.28913173619 680
v 1637.91664458546 -7718.87122402135 0
v 1629.3345523003 -7710.28913173619 680
v 1676.11665679249 -7718.87122402135 0
v 1676.11665679249 -7718.87122402135 0
v 1637.91664458546 -7757.0712057108 0
v 1637.91664458546 -7718.87122402135 0
v 1676.11665679249 -7757.0712057108 0
v 1684.69868804249 -7765.65326747838 680
v 1676.11665679249 -7718.87122402135 0
v 1684.69868804249 -7710.28913173619 680
v 1676.11665679249 -7757.0712057108 0
v 1629.3345523003 -7765.65326747838 680
v 1676.11665679249 -7757.0712057108 0
v 1684.69868804249 -7765.65326747838 680
v 1637.91664458546 -7757.0712057108 0
# 20 normals
vn -0.999920308589935 0 -0.0126197170466185
vn -0.999920308589935 0 -0.0126197170466185
vn -0.999920308589935 0 -0.012619717977941
vn -0.999920308589935 0 -0.012619717977941
vn 0 0.999920308589935 -0.012619717977941
vn 0 0.999920308589935 -0.012619717977941
vn 0 0.999920308589935 -0.0126197170466185
vn 0 0.999920308589935 -0.0126197189092636
vn 0 0 -1
vn 0 0 -1
vn 0 0 -1
vn 0 0 -1
vn 0.999920308589935 0 -0.0126196285709739
vn 0.999920308589935 0 -0.0126196285709739
vn 0.999920308589935 0 -0.0126196276396513
vn 0.999920308589935 0 -0.0126196285709739
vn 0 -0.999920308589935 -0.0126196732744575
vn 0 -0.999920308589935 -0.0126196732744575
vn 0 -0.999920308589935 -0.0126196732744575
vn 0 -0.999920308589935 -0.0126196732744575
# 20 texture coords
vt 0.0000 0.0000 0.0000
vt 0.0000 0.0000 0.0000
vt 0.0000 0.0000 0.0000
vt 0.0000 0.0000 0.0000
vt 0.0000 0.0000 0.0000
vt 0.0000 0.0000 0.0000
vt 0.0000 0.0000 0.0000
vt 0.0000 0.0000 0.0000
vt 0.0000 0.0000 0.0000
vt 0.0000 0.0000 0.0000
vt 0.0000 0.0000 0.0000
vt 0.0000 0.0000 0.0000
vt 0.0000 0.0000 0.0000
vt 0.0000 0.0000 0.0000
vt 0.0000 0.0000 0.0000
vt 0.0000 0.0000 0.0000
vt 0.0000 0.0000 0.0000
vt 0.0000 0.0000 0.0000
vt 0.0000 0.0000 0.0000
vt 0.0000 0.0000 0.0000
g TableLegGeometry
usemtl Metal90%Grey
# 10 triangles
f 81/81/81 82/82/82 83/83/83
f 81/81/81 83/83/83 84/84/84
f 85/85/85 86/86/86 87/87/87
f 85/85/85 88/88/88 86/86/86
f 89/89/89 90/90/90 91/91/91
f 89/89/89 92/92/92 90/90/90
f 93/93/93 94/94/94 95/95/95
f 93/93/93 96/96/96 94/94/94
f 97/97/97 98/98/98 99/99/99
f 97/97/97 100/100/100 98/98/98

#
# object TableTopGeometry
#
# 4 vertices
v 1684.69865752491 -8710.28922328893 680
v 684.698657524912 -8710.28922328893 680
v 684.698657524912 -7710.28922328893 680
v 1684.69865752491 -7710.28922328893 680
# 4 normals
vn 0 0 -1
vn 0 0 -1
vn 0 0 -1
vn 0 0 -1
# 4 texture coords
vt 0.0000 0.0000 0.0000
vt 0.0000 0.0000 0.0000
vt 0.0000 0.0000 0.0000
vt 0.0000 0.0000 0.0000
g TableTopGeometry
usemtl Chocolate
# 2 triangles
f 101/101/101 102/102/102 103/103/103
f 101/101/101 103/103/103 104/104/104
